# xmcd CD database file
#
# Track frame offsets:
#	150
#	26630
#	54390
#	72005
#	95190
#	110915
#	130085
#	149838
#	165388
#	187163
#	200843
#	221435
#	240110
#	259420
#	277913
#	298588
#	317900
#
# Disc length: 4497 seconds
#
# Revision: 0
# Processed by: cddbd v1.5.2PL0 Copyright (c) Steve Scherf et al.
# Submitted via: CDex 1.70beta2
#
DISCID=10118f11
DTITLE=Various Artist - Montecarlo Nights - New Classics 01
DYEAR=2003
DGENRE=Jazz
TTITLE0=Cellar 55 - With Or Without You
TTITLE1=Paul Hardcastle - Do It Again
TTITLE2=Steve Winwood - Why Can't We Live Together
TTITLE3=George Micheal - Miss Sarajevo
TTITLE4=Eli Goulart E Banda Do Mato - Sunny
TTITLE5=Noa - Eye In The Sky
TTITLE6=Kirsty Maccoll - Libertango
TTITLE7=Jimmy Nail - Walking On The Moon
TTITLE8=Shola Ama - You Might Need Somebody
TTITLE9=Malik Adouane - Shaft
TTITLE10=The Cristians - The Bottle
TTITLE11=Charlie Hunter Ft Norah Jones - More Than This
TTITLE12=Simply Red - You Make Me Feel Brand New
TTITLE13=Tom Jones and Mousse T - Sex Bomb
TTITLE14=Cassandra Wilson - Fragile
TTITLE15=Phil Perry - After The Love Has Gone
TTITLE16=Patti Austin - Cry Me A River
EXTD=YEAR: 2003
EXTT0=
EXTT1=
EXTT2=
EXTT3=
EXTT4=
EXTT5=
EXTT6=
EXTT7=
EXTT8=
EXTT9=
EXTT10=
EXTT11=
EXTT12=
EXTT13=
EXTT14=
EXTT15=
EXTT16=
PLAYORDER=
